solid Abstandshalter
facet normal 0.0 0.0 -1.0
  outer loop
    vertex 9.52017081080071 79.10466022516779 0.0
    vertex 10.46751426570824 71.08624895839478 0.0
    vertex 10.126772528598924 68.49805850736956 0.0
  endloop
endfacet
facet normal 0.0 0.0 -1.0
  outer loop
    vertex 10.46751426570824 71.08624895839478 0.0
    vertex 9.52017081080071 79.10466022516779 0.0
    vertex 11.466518490754538 73.49805850736956 0.0
  endloop
endfacet
facet normal 0.0 0.0 -1.0
  outer loop
    vertex 11.466518490754538 73.49805850736956 0.0
    vertex 9.52017081080071 79.10466022516779 0.0
    vertex 13.05570471673345 75.56912631923504 0.0
  endloop
endfacet
facet normal 0.0 0.0 -1.0
  outer loop
    vertex 5.637885134262898 72.38034418390737 0.0
    vertex 5.637885134262898 64.61577283083174 0.0
    vertex 5.126772528598922 68.49805850736956 0.0
  endloop
endfacet
facet normal 0.0 0.0 -1.0
  outer loop
    vertex 5.637885134262898 64.61577283083174 0.0
    vertex 5.637885134262898 72.38034418390737 0.0
    vertex 7.136391471832344 75.99805850736956 0.0
  endloop
endfacet
facet normal 0.0 0.0 -1.0
  outer loop
    vertex 5.637885134262898 64.61577283083174 0.0
    vertex 7.136391471832344 75.99805850736956 0.0
    vertex 7.136391471832341 60.99805850736956 0.0
  endloop
endfacet
facet normal 0.0 0.0 -1.0
  outer loop
    vertex 7.136391471832341 60.99805850736956 0.0
    vertex 7.136391471832344 75.99805850736956 0.0
    vertex 9.520170810800709 57.89145678957135 0.0
  endloop
endfacet
facet normal 0.0 0.0 -1.0
  outer loop
    vertex 9.520170810800709 57.89145678957135 0.0
    vertex 7.136391471832344 75.99805850736956 0.0
    vertex 9.52017081080071 79.10466022516779 0.0
  endloop
endfacet
facet normal 0.0 0.0 -1.0
  outer loop
    vertex 9.520170810800709 57.89145678957135 0.0
    vertex 9.52017081080071 79.10466022516779 0.0
    vertex 10.126772528598924 68.49805850736956 0.0
  endloop
endfacet
facet normal 0.0 0.0 -1.0
  outer loop
    vertex 9.520170810800709 57.89145678957135 0.0
    vertex 10.126772528598924 68.49805850736956 0.0
    vertex 10.46751426570824 65.90986805634437 0.0
  endloop
endfacet
facet normal 0.0 0.0 -1.0
  outer loop
    vertex 9.520170810800709 57.89145678957135 0.0
    vertex 10.46751426570824 65.90986805634437 0.0
    vertex 12.626772528598917 55.50767745060298 0.0
  endloop
endfacet
facet normal 0.0 0.0 -1.0
  outer loop
    vertex 12.626772528598917 55.50767745060298 0.0
    vertex 10.46751426570824 65.90986805634437 0.0
    vertex 11.466518490754535 63.498058507369564 0.0
  endloop
endfacet
facet normal 0.0 0.0 -1.0
  outer loop
    vertex 12.626772528598917 55.50767745060298 0.0
    vertex 11.466518490754535 63.498058507369564 0.0
    vertex 13.055704716733446 61.426990695504095 0.0
  endloop
endfacet
facet normal 0.0 0.0 -1.0
  outer loop
    vertex 12.626772528598917 55.50767745060298 0.0
    vertex 13.055704716733446 61.426990695504095 0.0
    vertex 15.224845281254503 54.43152048042104 0.0
  endloop
endfacet
facet normal 0.0 0.0 -1.0
  outer loop
    vertex 15.224845281254503 54.43152048042104 0.0
    vertex 13.055704716733446 61.426990695504095 0.0
    vertex 15.12677252859892 59.83780446952519 0.0
  endloop
endfacet
facet normal 0.0 0.0 -1.0
  outer loop
    vertex 15.224845281254503 54.43152048042104 0.0
    vertex 15.12677252859892 59.83780446952519 0.0
    vertex 17.53858207757371 58.83880024447888 0.0
  endloop
endfacet
facet normal 0.0 0.0 -1.0
  outer loop
    vertex 15.224845281254503 54.43152048042104 0.0
    vertex 17.53858207757371 58.83880024447888 0.0
    vertex 15.224845281254503 42.62537474897305 0.0
  endloop
endfacet
facet normal 0.0 0.0 -1.0
  outer loop
    vertex 5.72738956828499 32.47819634902682 0.0
    vertex 5.72738956828499 24.713624995951196 0.0
    vertex 5.216276962621014 28.595910672489005 0.0
  endloop
endfacet
facet normal 0.0 0.0 -1.0
  outer loop
    vertex 5.72738956828499 24.713624995951196 0.0
    vertex 5.72738956828499 32.47819634902682 0.0
    vertex 7.225895905854435 36.09591067248901 0.0
  endloop
endfacet
facet normal 0.0 0.0 -1.0
  outer loop
    vertex 5.72738956828499 24.713624995951196 0.0
    vertex 7.225895905854435 36.09591067248901 0.0
    vertex 7.225895905854433 21.09591067248901 0.0
  endloop
endfacet
facet normal 0.0 0.0 -1.0
  outer loop
    vertex 7.225895905854433 21.09591067248901 0.0
    vertex 7.225895905854435 36.09591067248901 0.0
    vertex 9.6096752448228 17.989308954690795 0.0
  endloop
endfacet
facet normal 0.0 0.0 -1.0
  outer loop
    vertex 9.6096752448228 17.989308954690795 0.0
    vertex 7.225895905854435 36.09591067248901 0.0
    vertex 9.609675244822801 39.202512390287225 0.0
  endloop
endfacet
facet normal 0.0 0.0 -1.0
  outer loop
    vertex 9.6096752448228 17.989308954690795 0.0
    vertex 9.609675244822801 39.202512390287225 0.0
    vertex 10.216276962621016 28.595910672489005 0.0
  endloop
endfacet
facet normal 0.0 0.0 -1.0
  outer loop
    vertex 9.6096752448228 17.989308954690795 0.0
    vertex 10.216276962621016 28.595910672489005 0.0
    vertex 10.557018699730333 26.0077202214638 0.0
  endloop
endfacet
facet normal 0.0 0.0 -1.0
  outer loop
    vertex 9.6096752448228 17.989308954690795 0.0
    vertex 10.557018699730333 26.0077202214638 0.0
    vertex 11.556022924776627 23.59591067248901 0.0
  endloop
endfacet
facet normal 0.0 0.0 -1.0
  outer loop
    vertex 9.6096752448228 17.989308954690795 0.0
    vertex 11.556022924776627 23.59591067248901 0.0
    vertex 13.145209150755539 21.524842860623536 0.0
  endloop
endfacet
facet normal 0.0 0.0 -1.0
  outer loop
    vertex 30.73337424639714 79.10466022516778 0.0
    vertex 28.787026566443313 73.49805850736956 0.0
    vertex 27.1978403404644 75.56912631923504 0.0
  endloop
endfacet
facet normal 0.0 0.0 -1.0
  outer loop
    vertex 28.787026566443313 73.49805850736956 0.0
    vertex 30.73337424639714 79.10466022516778 0.0
    vertex 29.786030791489605 71.08624895839478 0.0
  endloop
endfacet
facet normal 0.0 0.0 -1.0
  outer loop
    vertex 29.786030791489605 71.08624895839478 0.0
    vertex 30.73337424639714 79.10466022516778 0.0
    vertex 30.12677252859892 68.49805850736956 0.0
  endloop
endfacet
facet normal 0.0 0.0 -1.0
  outer loop
    vertex 30.12677252859892 68.49805850736956 0.0
    vertex 30.73337424639714 79.10466022516778 0.0
    vertex 30.73337424639713 57.89145678957134 0.0
  endloop
endfacet
facet normal 0.0 0.0 -1.0
  outer loop
    vertex 30.73337424639713 57.89145678957134 0.0
    vertex 30.73337424639714 79.10466022516778 0.0
    vertex 33.1171535853655 60.99805850736956 0.0
  endloop
endfacet
facet normal 0.0 0.0 -1.0
  outer loop
    vertex 33.1171535853655 60.99805850736956 0.0
    vertex 30.73337424639714 79.10466022516778 0.0
    vertex 33.11715358536551 75.99805850736955 0.0
  endloop
endfacet
facet normal 0.0 0.0 -1.0
  outer loop
    vertex 33.1171535853655 60.99805850736956 0.0
    vertex 33.11715358536551 75.99805850736955 0.0
    vertex 34.615659922934945 64.61577283083174 0.0
  endloop
endfacet
facet normal 0.0 0.0 -1.0
  outer loop
    vertex 34.615659922934945 64.61577283083174 0.0
    vertex 33.11715358536551 75.99805850736955 0.0
    vertex 34.615659922934945 72.38034418390737 0.0
  endloop
endfacet
facet normal 0.0 0.0 -1.0
  outer loop
    vertex 34.615659922934945 64.61577283083174 0.0
    vertex 34.615659922934945 72.38034418390737 0.0
    vertex 35.12677252859892 68.49805850736956 0.0
  endloop
endfacet
facet normal 0.0 0.0 -1.0
  outer loop
    vertex 9.609675244822801 39.202512390287225 0.0
    vertex 10.557018699730333 31.184101123514218 0.0
    vertex 10.216276962621016 28.595910672489005 0.0
  endloop
endfacet
facet normal 0.0 0.0 -1.0
  outer loop
    vertex 10.557018699730333 31.184101123514218 0.0
    vertex 9.609675244822801 39.202512390287225 0.0
    vertex 12.716276962621016 41.586291729255585 0.0
  endloop
endfacet
facet normal 0.0 0.0 -1.0
  outer loop
    vertex 10.557018699730333 31.184101123514218 0.0
    vertex 12.716276962621016 41.586291729255585 0.0
    vertex 11.556022924776629 33.595910672489005 0.0
  endloop
endfacet
facet normal 0.0 0.0 -1.0
  outer loop
    vertex 11.556022924776629 33.595910672489005 0.0
    vertex 12.716276962621016 41.586291729255585 0.0
    vertex 13.14520915075554 35.66697848435447 0.0
  endloop
endfacet
facet normal 0.0 0.0 -1.0
  outer loop
    vertex 13.14520915075554 35.66697848435447 0.0
    vertex 12.716276962621016 41.586291729255585 0.0
    vertex 15.224845281254503 42.62537474897305 0.0
  endloop
endfacet
facet normal 0.0 0.0 -1.0
  outer loop
    vertex 13.14520915075554 35.66697848435447 0.0
    vertex 15.224845281254503 42.62537474897305 0.0
    vertex 15.216276962621015 37.256164710333394 0.0
  endloop
endfacet
facet normal 0.0 0.0 -1.0
  outer loop
    vertex 15.216276962621015 37.256164710333394 0.0
    vertex 15.224845281254503 42.62537474897305 0.0
    vertex 17.628086511595807 38.255168935379686 0.0
  endloop
endfacet
facet normal 0.0 0.0 -1.0
  outer loop
    vertex 17.628086511595807 38.255168935379686 0.0
    vertex 15.224845281254503 42.62537474897305 0.0
    vertex 17.53858207757371 58.83880024447888 0.0
  endloop
endfacet
facet normal 0.0 0.0 -1.0
  outer loop
    vertex 17.628086511595807 38.255168935379686 0.0
    vertex 17.53858207757371 58.83880024447888 0.0
    vertex 20.126772528598924 58.498058507369564 0.0
  endloop
endfacet
facet normal 0.0 0.0 -1.0
  outer loop
    vertex 17.628086511595807 38.255168935379686 0.0
    vertex 20.126772528598924 58.498058507369564 0.0
    vertex 20.216276962621013 38.595910672489005 0.0
  endloop
endfacet
facet normal 0.0 0.0 -1.0
  outer loop
    vertex 20.216276962621013 38.595910672489005 0.0
    vertex 20.126772528598924 58.498058507369564 0.0
    vertex 22.714962979624126 58.83880024447888 0.0
  endloop
endfacet
facet normal 0.0 0.0 -1.0
  outer loop
    vertex 20.216276962621013 38.595910672489005 0.0
    vertex 22.714962979624126 58.83880024447888 0.0
    vertex 22.80446741364623 38.25516893537968 0.0
  endloop
endfacet
facet normal 0.0 0.0 -1.0
  outer loop
    vertex 22.80446741364623 38.25516893537968 0.0
    vertex 22.714962979624126 58.83880024447888 0.0
    vertex 25.12677252859892 59.837804469525175 0.0
  endloop
endfacet
facet normal 0.0 0.0 -1.0
  outer loop
    vertex 22.80446741364623 38.25516893537968 0.0
    vertex 25.12677252859892 59.837804469525175 0.0
    vertex 25.118204209965434 54.46859443088552 0.0
  endloop
endfacet
facet normal 0.0 0.0 -1.0
  outer loop
    vertex 25.118204209965434 54.46859443088552 0.0
    vertex 25.12677252859892 59.837804469525175 0.0
    vertex 27.62677252859892 55.507677450602976 0.0
  endloop
endfacet
facet normal 0.0 0.0 -1.0
  outer loop
    vertex 27.62677252859892 55.507677450602976 0.0
    vertex 25.12677252859892 59.837804469525175 0.0
    vertex 27.197840340464392 61.42699069550409 0.0
  endloop
endfacet
facet normal 0.0 0.0 -1.0
  outer loop
    vertex 27.62677252859892 55.507677450602976 0.0
    vertex 27.197840340464392 61.42699069550409 0.0
    vertex 28.787026566443302 63.49805850736956 0.0
  endloop
endfacet
facet normal 0.0 0.0 -1.0
  outer loop
    vertex 27.62677252859892 55.507677450602976 0.0
    vertex 28.787026566443302 63.49805850736956 0.0
    vertex 30.73337424639713 57.89145678957134 0.0
  endloop
endfacet
facet normal 0.0 0.0 -1.0
  outer loop
    vertex 30.73337424639713 57.89145678957134 0.0
    vertex 28.787026566443302 63.49805850736956 0.0
    vertex 29.786030791489605 65.90986805634434 0.0
  endloop
endfacet
facet normal 0.0 0.0 -1.0
  outer loop
    vertex 30.73337424639713 57.89145678957134 0.0
    vertex 29.786030791489605 65.90986805634434 0.0
    vertex 30.12677252859892 68.49805850736956 0.0
  endloop
endfacet
facet normal 0.0 0.0 -1.0
  outer loop
    vertex 25.118204209965434 54.46859443088552 0.0
    vertex 25.216276962621016 37.25616471033339 0.0
    vertex 22.80446741364623 38.25516893537968 0.0
  endloop
endfacet
facet normal 0.0 0.0 -1.0
  outer loop
    vertex 25.216276962621016 37.25616471033339 0.0
    vertex 25.118204209965434 54.46859443088552 0.0
    vertex 25.22531971706213 42.61808000365761 0.0
  endloop
endfacet
facet normal 0.0 0.0 -1.0
  outer loop
    vertex 25.216276962621016 37.25616471033339 0.0
    vertex 25.22531971706213 42.61808000365761 0.0
    vertex 27.287344774486492 35.66697848435447 0.0
  endloop
endfacet
facet normal 0.0 0.0 -1.0
  outer loop
    vertex 27.287344774486492 35.66697848435447 0.0
    vertex 25.22531971706213 42.61808000365761 0.0
    vertex 27.716276962621023 41.586291729255585 0.0
  endloop
endfacet
facet normal 0.0 0.0 -1.0
  outer loop
    vertex 27.287344774486492 35.66697848435447 0.0
    vertex 27.716276962621023 41.586291729255585 0.0
    vertex 28.876531000465405 33.595910672489 0.0
  endloop
endfacet
facet normal 0.0 0.0 -1.0
  outer loop
    vertex 28.876531000465405 33.595910672489 0.0
    vertex 27.716276962621023 41.586291729255585 0.0
    vertex 30.82287868041923 39.20251239028722 0.0
  endloop
endfacet
facet normal 0.0 0.0 -1.0
  outer loop
    vertex 28.876531000465405 33.595910672489 0.0
    vertex 30.82287868041923 39.20251239028722 0.0
    vertex 29.875535225511694 31.18410112351421 0.0
  endloop
endfacet
facet normal 0.0 0.0 -1.0
  outer loop
    vertex 29.875535225511694 31.18410112351421 0.0
    vertex 30.82287868041923 39.20251239028722 0.0
    vertex 30.216276962621013 28.595910672489005 0.0
  endloop
endfacet
facet normal 0.0 0.0 -1.0
  outer loop
    vertex 30.216276962621013 28.595910672489005 0.0
    vertex 30.82287868041923 39.20251239028722 0.0
    vertex 30.82287868041922 17.989308954690785 0.0
  endloop
endfacet
facet normal 0.0 0.0 -1.0
  outer loop
    vertex 30.82287868041922 17.989308954690785 0.0
    vertex 30.82287868041923 39.20251239028722 0.0
    vertex 33.20665801938759 21.095910672488998 0.0
  endloop
endfacet
facet normal 0.0 0.0 -1.0
  outer loop
    vertex 33.20665801938759 21.095910672488998 0.0
    vertex 30.82287868041923 39.20251239028722 0.0
    vertex 33.2066580193876 36.09591067248899 0.0
  endloop
endfacet
facet normal 0.0 0.0 -1.0
  outer loop
    vertex 33.20665801938759 21.095910672488998 0.0
    vertex 33.2066580193876 36.09591067248899 0.0
    vertex 34.70516435695704 24.713624995951182 0.0
  endloop
endfacet
facet normal 0.0 0.0 -1.0
  outer loop
    vertex 34.70516435695704 24.713624995951182 0.0
    vertex 33.2066580193876 36.09591067248899 0.0
    vertex 34.70516435695704 32.47819634902682 0.0
  endloop
endfacet
facet normal 0.0 0.0 -1.0
  outer loop
    vertex 34.70516435695704 24.713624995951182 0.0
    vertex 34.70516435695704 32.47819634902682 0.0
    vertex 35.216276962621016 28.595910672489005 0.0
  endloop
endfacet
facet normal 0.0 0.0 -1.0
  outer loop
    vertex 28.876531000465395 23.595910672489005 0.0
    vertex 30.82287868041922 17.989308954690785 0.0
    vertex 27.287344774486485 21.52484286062353 0.0
  endloop
endfacet
facet normal 0.0 0.0 -1.0
  outer loop
    vertex 30.82287868041922 17.989308954690785 0.0
    vertex 28.876531000465395 23.595910672489005 0.0
    vertex 29.875535225511694 26.00772022146379 0.0
  endloop
endfacet
facet normal 0.0 0.0 -1.0
  outer loop
    vertex 30.82287868041922 17.989308954690785 0.0
    vertex 29.875535225511694 26.00772022146379 0.0
    vertex 30.216276962621013 28.595910672489005 0.0
  endloop
endfacet
facet normal -0.0 -0.0 1.0
  outer loop
    vertex 5.72738956828499 24.713624995951196 3.9999999999999996
    vertex 5.72738956828499 32.47819634902682 3.9999999999999996
    vertex 5.216276962621014 28.595910672489005 3.9999999999999996
  endloop
endfacet
facet normal -0.0 -0.0 1.0
  outer loop
    vertex 5.72738956828499 32.47819634902682 3.9999999999999996
    vertex 5.72738956828499 24.713624995951196 3.9999999999999996
    vertex 7.225895905854433 21.09591067248901 3.9999999999999996
  endloop
endfacet
facet normal -0.0 -0.0 1.0
  outer loop
    vertex 5.72738956828499 32.47819634902682 3.9999999999999996
    vertex 7.225895905854433 21.09591067248901 3.9999999999999996
    vertex 7.225895905854435 36.09591067248901 3.9999999999999996
  endloop
endfacet
facet normal -0.0 -0.0 1.0
  outer loop
    vertex 7.225895905854435 36.09591067248901 3.9999999999999996
    vertex 7.225895905854433 21.09591067248901 3.9999999999999996
    vertex 9.6096752448228 17.989308954690795 3.9999999999999996
  endloop
endfacet
facet normal -0.0 -0.0 1.0
  outer loop
    vertex 7.225895905854435 36.09591067248901 3.9999999999999996
    vertex 9.6096752448228 17.989308954690795 3.9999999999999996
    vertex 9.609675244822801 39.202512390287225 3.9999999999999996
  endloop
endfacet
facet normal -0.0 -0.0 1.0
  outer loop
    vertex 9.609675244822801 39.202512390287225 3.9999999999999996
    vertex 9.6096752448228 17.989308954690795 3.9999999999999996
    vertex 10.216276962621016 28.595910672489005 3.9999999999999996
  endloop
endfacet
facet normal -0.0 -0.0 1.0
  outer loop
    vertex 10.216276962621016 28.595910672489005 3.9999999999999996
    vertex 9.6096752448228 17.989308954690795 3.9999999999999996
    vertex 10.557018699730333 26.0077202214638 3.9999999999999996
  endloop
endfacet
facet normal -0.0 -0.0 1.0
  outer loop
    vertex 10.557018699730333 26.0077202214638 3.9999999999999996
    vertex 9.6096752448228 17.989308954690795 3.9999999999999996
    vertex 11.556022924776627 23.59591067248901 3.9999999999999996
  endloop
endfacet
facet normal -0.0 -0.0 1.0
  outer loop
    vertex 11.556022924776627 23.59591067248901 3.9999999999999996
    vertex 9.6096752448228 17.989308954690795 3.9999999999999996
    vertex 13.145209150755539 21.524842860623536 3.9999999999999996
  endloop
endfacet
facet normal -0.0 -0.0 1.0
  outer loop
    vertex 30.82287868041922 17.989308954690785 3.9999999999999996
    vertex 28.876531000465395 23.595910672489005 3.9999999999999996
    vertex 27.287344774486485 21.52484286062353 3.9999999999999996
  endloop
endfacet
facet normal -0.0 -0.0 1.0
  outer loop
    vertex 28.876531000465395 23.595910672489005 3.9999999999999996
    vertex 30.82287868041922 17.989308954690785 3.9999999999999996
    vertex 29.875535225511694 26.00772022146379 3.9999999999999996
  endloop
endfacet
facet normal -0.0 -0.0 1.0
  outer loop
    vertex 29.875535225511694 26.00772022146379 3.9999999999999996
    vertex 30.82287868041922 17.989308954690785 3.9999999999999996
    vertex 30.216276962621013 28.595910672489005 3.9999999999999996
  endloop
endfacet
facet normal -0.0 -0.0 1.0
  outer loop
    vertex 25.216276962621016 37.25616471033339 3.9999999999999996
    vertex 25.118204209965434 54.46859443088552 3.9999999999999996
    vertex 22.80446741364623 38.25516893537968 3.9999999999999996
  endloop
endfacet
facet normal -0.0 -0.0 1.0
  outer loop
    vertex 25.118204209965434 54.46859443088552 3.9999999999999996
    vertex 25.216276962621016 37.25616471033339 3.9999999999999996
    vertex 25.22531971706213 42.61808000365761 3.9999999999999996
  endloop
endfacet
facet normal -0.0 -0.0 1.0
  outer loop
    vertex 25.22531971706213 42.61808000365761 3.9999999999999996
    vertex 25.216276962621016 37.25616471033339 3.9999999999999996
    vertex 27.287344774486492 35.66697848435447 3.9999999999999996
  endloop
endfacet
facet normal -0.0 -0.0 1.0
  outer loop
    vertex 25.22531971706213 42.61808000365761 3.9999999999999996
    vertex 27.287344774486492 35.66697848435447 3.9999999999999996
    vertex 27.716276962621023 41.586291729255585 3.9999999999999996
  endloop
endfacet
facet normal -0.0 -0.0 1.0
  outer loop
    vertex 27.716276962621023 41.586291729255585 3.9999999999999996
    vertex 27.287344774486492 35.66697848435447 3.9999999999999996
    vertex 28.876531000465405 33.595910672489 3.9999999999999996
  endloop
endfacet
facet normal -0.0 -0.0 1.0
  outer loop
    vertex 27.716276962621023 41.586291729255585 3.9999999999999996
    vertex 28.876531000465405 33.595910672489 3.9999999999999996
    vertex 30.82287868041923 39.20251239028722 3.9999999999999996
  endloop
endfacet
facet normal -0.0 -0.0 1.0
  outer loop
    vertex 30.82287868041923 39.20251239028722 3.9999999999999996
    vertex 28.876531000465405 33.595910672489 3.9999999999999996
    vertex 29.875535225511694 31.18410112351421 3.9999999999999996
  endloop
endfacet
facet normal -0.0 -0.0 1.0
  outer loop
    vertex 30.82287868041923 39.20251239028722 3.9999999999999996
    vertex 29.875535225511694 31.18410112351421 3.9999999999999996
    vertex 30.216276962621013 28.595910672489005 3.9999999999999996
  endloop
endfacet
facet normal -0.0 -0.0 1.0
  outer loop
    vertex 30.82287868041923 39.20251239028722 3.9999999999999996
    vertex 30.216276962621013 28.595910672489005 3.9999999999999996
    vertex 30.82287868041922 17.989308954690785 3.9999999999999996
  endloop
endfacet
facet normal -0.0 -0.0 1.0
  outer loop
    vertex 30.82287868041923 39.20251239028722 3.9999999999999996
    vertex 30.82287868041922 17.989308954690785 3.9999999999999996
    vertex 33.20665801938759 21.095910672488998 3.9999999999999996
  endloop
endfacet
facet normal -0.0 -0.0 1.0
  outer loop
    vertex 30.82287868041923 39.20251239028722 3.9999999999999996
    vertex 33.20665801938759 21.095910672488998 3.9999999999999996
    vertex 33.2066580193876 36.09591067248899 3.9999999999999996
  endloop
endfacet
facet normal -0.0 -0.0 1.0
  outer loop
    vertex 33.2066580193876 36.09591067248899 3.9999999999999996
    vertex 33.20665801938759 21.095910672488998 3.9999999999999996
    vertex 34.70516435695704 24.713624995951182 3.9999999999999996
  endloop
endfacet
facet normal -0.0 -0.0 1.0
  outer loop
    vertex 33.2066580193876 36.09591067248899 3.9999999999999996
    vertex 34.70516435695704 24.713624995951182 3.9999999999999996
    vertex 34.70516435695704 32.47819634902682 3.9999999999999996
  endloop
endfacet
facet normal -0.0 -0.0 1.0
  outer loop
    vertex 34.70516435695704 32.47819634902682 3.9999999999999996
    vertex 34.70516435695704 24.713624995951182 3.9999999999999996
    vertex 35.216276962621016 28.595910672489005 3.9999999999999996
  endloop
endfacet
facet normal -0.0 -0.0 1.0
  outer loop
    vertex 9.609675244822801 39.202512390287225 3.9999999999999996
    vertex 10.557018699730333 31.184101123514218 3.9999999999999996
    vertex 12.716276962621016 41.586291729255585 3.9999999999999996
  endloop
endfacet
facet normal -0.0 -0.0 1.0
  outer loop
    vertex 10.557018699730333 31.184101123514218 3.9999999999999996
    vertex 9.609675244822801 39.202512390287225 3.9999999999999996
    vertex 10.216276962621016 28.595910672489005 3.9999999999999996
  endloop
endfacet
facet normal -0.0 -0.0 1.0
  outer loop
    vertex 12.716276962621016 41.586291729255585 3.9999999999999996
    vertex 10.557018699730333 31.184101123514218 3.9999999999999996
    vertex 11.556022924776629 33.595910672489005 3.9999999999999996
  endloop
endfacet
facet normal -0.0 -0.0 1.0
  outer loop
    vertex 12.716276962621016 41.586291729255585 3.9999999999999996
    vertex 11.556022924776629 33.595910672489005 3.9999999999999996
    vertex 13.14520915075554 35.66697848435447 3.9999999999999996
  endloop
endfacet
facet normal -0.0 -0.0 1.0
  outer loop
    vertex 12.716276962621016 41.586291729255585 3.9999999999999996
    vertex 13.14520915075554 35.66697848435447 3.9999999999999996
    vertex 15.224845281254503 42.62537474897305 3.9999999999999996
  endloop
endfacet
facet normal -0.0 -0.0 1.0
  outer loop
    vertex 15.224845281254503 42.62537474897305 3.9999999999999996
    vertex 13.14520915075554 35.66697848435447 3.9999999999999996
    vertex 15.216276962621015 37.256164710333394 3.9999999999999996
  endloop
endfacet
facet normal -0.0 -0.0 1.0
  outer loop
    vertex 15.224845281254503 42.62537474897305 3.9999999999999996
    vertex 15.216276962621015 37.256164710333394 3.9999999999999996
    vertex 17.628086511595807 38.255168935379686 3.9999999999999996
  endloop
endfacet
facet normal -0.0 -0.0 1.0
  outer loop
    vertex 15.224845281254503 42.62537474897305 3.9999999999999996
    vertex 17.628086511595807 38.255168935379686 3.9999999999999996
    vertex 15.224845281254503 54.43152048042104 3.9999999999999996
  endloop
endfacet
facet normal -0.0 -0.0 1.0
  outer loop
    vertex 15.224845281254503 54.43152048042104 3.9999999999999996
    vertex 17.628086511595807 38.255168935379686 3.9999999999999996
    vertex 17.53858207757371 58.83880024447888 3.9999999999999996
  endloop
endfacet
facet normal -0.0 -0.0 1.0
  outer loop
    vertex 17.53858207757371 58.83880024447888 3.9999999999999996
    vertex 17.628086511595807 38.255168935379686 3.9999999999999996
    vertex 20.126772528598924 58.498058507369564 3.9999999999999996
  endloop
endfacet
facet normal -0.0 -0.0 1.0
  outer loop
    vertex 20.126772528598924 58.498058507369564 3.9999999999999996
    vertex 17.628086511595807 38.255168935379686 3.9999999999999996
    vertex 20.216276962621013 38.595910672489005 3.9999999999999996
  endloop
endfacet
facet normal -0.0 -0.0 1.0
  outer loop
    vertex 20.126772528598924 58.498058507369564 3.9999999999999996
    vertex 20.216276962621013 38.595910672489005 3.9999999999999996
    vertex 22.714962979624126 58.83880024447888 3.9999999999999996
  endloop
endfacet
facet normal -0.0 -0.0 1.0
  outer loop
    vertex 22.714962979624126 58.83880024447888 3.9999999999999996
    vertex 20.216276962621013 38.595910672489005 3.9999999999999996
    vertex 22.80446741364623 38.25516893537968 3.9999999999999996
  endloop
endfacet
facet normal -0.0 -0.0 1.0
  outer loop
    vertex 22.714962979624126 58.83880024447888 3.9999999999999996
    vertex 22.80446741364623 38.25516893537968 3.9999999999999996
    vertex 25.12677252859892 59.837804469525175 3.9999999999999996
  endloop
endfacet
facet normal -0.0 -0.0 1.0
  outer loop
    vertex 25.12677252859892 59.837804469525175 3.9999999999999996
    vertex 22.80446741364623 38.25516893537968 3.9999999999999996
    vertex 25.118204209965434 54.46859443088552 3.9999999999999996
  endloop
endfacet
facet normal -0.0 -0.0 1.0
  outer loop
    vertex 25.12677252859892 59.837804469525175 3.9999999999999996
    vertex 25.118204209965434 54.46859443088552 3.9999999999999996
    vertex 27.62677252859892 55.507677450602976 3.9999999999999996
  endloop
endfacet
facet normal -0.0 -0.0 1.0
  outer loop
    vertex 25.12677252859892 59.837804469525175 3.9999999999999996
    vertex 27.62677252859892 55.507677450602976 3.9999999999999996
    vertex 27.197840340464392 61.42699069550409 3.9999999999999996
  endloop
endfacet
facet normal -0.0 -0.0 1.0
  outer loop
    vertex 27.197840340464392 61.42699069550409 3.9999999999999996
    vertex 27.62677252859892 55.507677450602976 3.9999999999999996
    vertex 28.787026566443302 63.49805850736956 3.9999999999999996
  endloop
endfacet
facet normal -0.0 -0.0 1.0
  outer loop
    vertex 28.787026566443302 63.49805850736956 3.9999999999999996
    vertex 27.62677252859892 55.507677450602976 3.9999999999999996
    vertex 30.73337424639713 57.89145678957134 3.9999999999999996
  endloop
endfacet
facet normal -0.0 -0.0 1.0
  outer loop
    vertex 28.787026566443302 63.49805850736956 3.9999999999999996
    vertex 30.73337424639713 57.89145678957134 3.9999999999999996
    vertex 29.786030791489605 65.90986805634434 3.9999999999999996
  endloop
endfacet
facet normal -0.0 -0.0 1.0
  outer loop
    vertex 29.786030791489605 65.90986805634434 3.9999999999999996
    vertex 30.73337424639713 57.89145678957134 3.9999999999999996
    vertex 30.12677252859892 68.49805850736956 3.9999999999999996
  endloop
endfacet
facet normal -0.0 -0.0 1.0
  outer loop
    vertex 28.787026566443313 73.49805850736956 3.9999999999999996
    vertex 30.73337424639714 79.10466022516778 3.9999999999999996
    vertex 27.1978403404644 75.56912631923504 3.9999999999999996
  endloop
endfacet
facet normal -0.0 -0.0 1.0
  outer loop
    vertex 30.73337424639714 79.10466022516778 3.9999999999999996
    vertex 28.787026566443313 73.49805850736956 3.9999999999999996
    vertex 29.786030791489605 71.08624895839478 3.9999999999999996
  endloop
endfacet
facet normal -0.0 -0.0 1.0
  outer loop
    vertex 30.73337424639714 79.10466022516778 3.9999999999999996
    vertex 29.786030791489605 71.08624895839478 3.9999999999999996
    vertex 30.12677252859892 68.49805850736956 3.9999999999999996
  endloop
endfacet
facet normal -0.0 -0.0 1.0
  outer loop
    vertex 30.73337424639714 79.10466022516778 3.9999999999999996
    vertex 30.12677252859892 68.49805850736956 3.9999999999999996
    vertex 30.73337424639713 57.89145678957134 3.9999999999999996
  endloop
endfacet
facet normal -0.0 -0.0 1.0
  outer loop
    vertex 30.73337424639714 79.10466022516778 3.9999999999999996
    vertex 30.73337424639713 57.89145678957134 3.9999999999999996
    vertex 33.1171535853655 60.99805850736956 3.9999999999999996
  endloop
endfacet
facet normal -0.0 -0.0 1.0
  outer loop
    vertex 30.73337424639714 79.10466022516778 3.9999999999999996
    vertex 33.1171535853655 60.99805850736956 3.9999999999999996
    vertex 33.11715358536551 75.99805850736955 3.9999999999999996
  endloop
endfacet
facet normal -0.0 -0.0 1.0
  outer loop
    vertex 33.11715358536551 75.99805850736955 3.9999999999999996
    vertex 33.1171535853655 60.99805850736956 3.9999999999999996
    vertex 34.615659922934945 64.61577283083174 3.9999999999999996
  endloop
endfacet
facet normal -0.0 -0.0 1.0
  outer loop
    vertex 33.11715358536551 75.99805850736955 3.9999999999999996
    vertex 34.615659922934945 64.61577283083174 3.9999999999999996
    vertex 34.615659922934945 72.38034418390737 3.9999999999999996
  endloop
endfacet
facet normal -0.0 -0.0 1.0
  outer loop
    vertex 34.615659922934945 72.38034418390737 3.9999999999999996
    vertex 34.615659922934945 64.61577283083174 3.9999999999999996
    vertex 35.12677252859892 68.49805850736956 3.9999999999999996
  endloop
endfacet
facet normal -0.0 -0.0 1.0
  outer loop
    vertex 5.637885134262898 64.61577283083174 3.9999999999999996
    vertex 5.637885134262898 72.38034418390737 3.9999999999999996
    vertex 5.126772528598922 68.49805850736956 3.9999999999999996
  endloop
endfacet
facet normal -0.0 -0.0 1.0
  outer loop
    vertex 5.637885134262898 72.38034418390737 3.9999999999999996
    vertex 5.637885134262898 64.61577283083174 3.9999999999999996
    vertex 7.136391471832341 60.99805850736956 3.9999999999999996
  endloop
endfacet
facet normal -0.0 -0.0 1.0
  outer loop
    vertex 5.637885134262898 72.38034418390737 3.9999999999999996
    vertex 7.136391471832341 60.99805850736956 3.9999999999999996
    vertex 7.136391471832344 75.99805850736956 3.9999999999999996
  endloop
endfacet
facet normal -0.0 -0.0 1.0
  outer loop
    vertex 7.136391471832344 75.99805850736956 3.9999999999999996
    vertex 7.136391471832341 60.99805850736956 3.9999999999999996
    vertex 9.520170810800709 57.89145678957135 3.9999999999999996
  endloop
endfacet
facet normal -0.0 -0.0 1.0
  outer loop
    vertex 7.136391471832344 75.99805850736956 3.9999999999999996
    vertex 9.520170810800709 57.89145678957135 3.9999999999999996
    vertex 9.52017081080071 79.10466022516779 3.9999999999999996
  endloop
endfacet
facet normal -0.0 -0.0 1.0
  outer loop
    vertex 9.52017081080071 79.10466022516779 3.9999999999999996
    vertex 9.520170810800709 57.89145678957135 3.9999999999999996
    vertex 10.126772528598924 68.49805850736956 3.9999999999999996
  endloop
endfacet
facet normal -0.0 -0.0 1.0
  outer loop
    vertex 10.126772528598924 68.49805850736956 3.9999999999999996
    vertex 9.520170810800709 57.89145678957135 3.9999999999999996
    vertex 10.46751426570824 65.90986805634437 3.9999999999999996
  endloop
endfacet
facet normal -0.0 -0.0 1.0
  outer loop
    vertex 10.46751426570824 65.90986805634437 3.9999999999999996
    vertex 9.520170810800709 57.89145678957135 3.9999999999999996
    vertex 12.626772528598917 55.50767745060298 3.9999999999999996
  endloop
endfacet
facet normal -0.0 -0.0 1.0
  outer loop
    vertex 10.46751426570824 65.90986805634437 3.9999999999999996
    vertex 12.626772528598917 55.50767745060298 3.9999999999999996
    vertex 11.466518490754535 63.498058507369564 3.9999999999999996
  endloop
endfacet
facet normal -0.0 -0.0 1.0
  outer loop
    vertex 11.466518490754535 63.498058507369564 3.9999999999999996
    vertex 12.626772528598917 55.50767745060298 3.9999999999999996
    vertex 13.055704716733446 61.426990695504095 3.9999999999999996
  endloop
endfacet
facet normal -0.0 -0.0 1.0
  outer loop
    vertex 13.055704716733446 61.426990695504095 3.9999999999999996
    vertex 12.626772528598917 55.50767745060298 3.9999999999999996
    vertex 15.224845281254503 54.43152048042104 3.9999999999999996
  endloop
endfacet
facet normal -0.0 -0.0 1.0
  outer loop
    vertex 13.055704716733446 61.426990695504095 3.9999999999999996
    vertex 15.224845281254503 54.43152048042104 3.9999999999999996
    vertex 15.12677252859892 59.83780446952519 3.9999999999999996
  endloop
endfacet
facet normal -0.0 -0.0 1.0
  outer loop
    vertex 15.12677252859892 59.83780446952519 3.9999999999999996
    vertex 15.224845281254503 54.43152048042104 3.9999999999999996
    vertex 17.53858207757371 58.83880024447888 3.9999999999999996
  endloop
endfacet
facet normal -0.0 -0.0 1.0
  outer loop
    vertex 9.52017081080071 79.10466022516779 3.9999999999999996
    vertex 11.466518490754538 73.49805850736956 3.9999999999999996
    vertex 13.05570471673345 75.56912631923504 3.9999999999999996
  endloop
endfacet
facet normal -0.0 -0.0 1.0
  outer loop
    vertex 11.466518490754538 73.49805850736956 3.9999999999999996
    vertex 9.52017081080071 79.10466022516779 3.9999999999999996
    vertex 10.46751426570824 71.08624895839478 3.9999999999999996
  endloop
endfacet
facet normal -0.0 -0.0 1.0
  outer loop
    vertex 10.46751426570824 71.08624895839478 3.9999999999999996
    vertex 9.52017081080071 79.10466022516779 3.9999999999999996
    vertex 10.126772528598924 68.49805850736956 3.9999999999999996
  endloop
endfacet
facet normal -0.7933533402912349 -0.608761429008721 -0.0
  outer loop
    vertex 27.1978403404644 75.56912631923504 3.9999999999999996
    vertex 28.787026566443313 73.49805850736956 0.0
    vertex 28.787026566443313 73.49805850736956 3.9999999999999996
  endloop
endfacet
facet normal -0.7933533402912349 -0.608761429008721 -0.0
  outer loop
    vertex 28.787026566443313 73.49805850736956 0.0
    vertex 27.1978403404644 75.56912631923504 3.9999999999999996
    vertex 27.1978403404644 75.56912631923504 0.0
  endloop
endfacet
facet normal -0.707106781186547 0.7071067811865481 0.0
  outer loop
    vertex 27.1978403404644 75.56912631923504 3.9999999999999996
    vertex 30.73337424639714 79.10466022516778 0.0
    vertex 27.1978403404644 75.56912631923504 0.0
  endloop
endfacet
facet normal -0.707106781186547 0.7071067811865481 0.0
  outer loop
    vertex 30.73337424639714 79.10466022516778 0.0
    vertex 27.1978403404644 75.56912631923504 3.9999999999999996
    vertex 30.73337424639714 79.10466022516778 3.9999999999999996
  endloop
endfacet
facet normal 0.7933533402912353 0.6087614290087205 0.0
  outer loop
    vertex 30.73337424639714 79.10466022516778 0.0
    vertex 33.11715358536551 75.99805850736955 3.9999999999999996
    vertex 33.11715358536551 75.99805850736955 0.0
  endloop
endfacet
facet normal 0.7933533402912353 0.6087614290087205 0.0
  outer loop
    vertex 33.11715358536551 75.99805850736955 3.9999999999999996
    vertex 30.73337424639714 79.10466022516778 0.0
    vertex 30.73337424639714 79.10466022516778 3.9999999999999996
  endloop
endfacet
facet normal 0.9238795325112872 0.382683432365089 0.0
  outer loop
    vertex 33.11715358536551 75.99805850736955 0.0
    vertex 34.615659922934945 72.38034418390737 3.9999999999999996
    vertex 34.615659922934945 72.38034418390737 0.0
  endloop
endfacet
facet normal 0.9238795325112872 0.382683432365089 0.0
  outer loop
    vertex 34.615659922934945 72.38034418390737 3.9999999999999996
    vertex 33.11715358536551 75.99805850736955 0.0
    vertex 33.11715358536551 75.99805850736955 3.9999999999999996
  endloop
endfacet
facet normal 0.9914448613738104 0.13052619222005188 0.0
  outer loop
    vertex 34.615659922934945 72.38034418390737 0.0
    vertex 35.12677252859892 68.49805850736956 3.9999999999999996
    vertex 35.12677252859892 68.49805850736956 0.0
  endloop
endfacet
facet normal 0.9914448613738104 0.13052619222005188 0.0
  outer loop
    vertex 35.12677252859892 68.49805850736956 3.9999999999999996
    vertex 34.615659922934945 72.38034418390737 0.0
    vertex 34.615659922934945 72.38034418390737 3.9999999999999996
  endloop
endfacet
facet normal 0.9914448613738105 -0.13052619222005113 0.0
  outer loop
    vertex 35.12677252859892 68.49805850736956 0.0
    vertex 34.615659922934945 64.61577283083174 3.9999999999999996
    vertex 34.615659922934945 64.61577283083174 0.0
  endloop
endfacet
facet normal 0.9914448613738105 -0.13052619222005113 0.0
  outer loop
    vertex 34.615659922934945 64.61577283083174 3.9999999999999996
    vertex 35.12677252859892 68.49805850736956 0.0
    vertex 35.12677252859892 68.49805850736956 3.9999999999999996
  endloop
endfacet
facet normal 0.9238795325112862 -0.3826834323650915 0.0
  outer loop
    vertex 34.615659922934945 64.61577283083174 0.0
    vertex 33.1171535853655 60.99805850736956 3.9999999999999996
    vertex 33.1171535853655 60.99805850736956 0.0
  endloop
endfacet
facet normal 0.9238795325112862 -0.3826834323650915 0.0
  outer loop
    vertex 33.1171535853655 60.99805850736956 3.9999999999999996
    vertex 34.615659922934945 64.61577283083174 0.0
    vertex 34.615659922934945 64.61577283083174 3.9999999999999996
  endloop
endfacet
facet normal 0.7933533402912353 -0.6087614290087205 0.0
  outer loop
    vertex 33.1171535853655 60.99805850736956 0.0
    vertex 30.73337424639713 57.89145678957134 3.9999999999999996
    vertex 30.73337424639713 57.89145678957134 0.0
  endloop
endfacet
facet normal 0.7933533402912353 -0.6087614290087205 0.0
  outer loop
    vertex 30.73337424639713 57.89145678957134 3.9999999999999996
    vertex 33.1171535853655 60.99805850736956 0.0
    vertex 33.1171535853655 60.99805850736956 3.9999999999999996
  endloop
endfacet
facet normal 0.608761429008721 -0.7933533402912349 0.0
  outer loop
    vertex 30.73337424639713 57.89145678957134 3.9999999999999996
    vertex 27.62677252859892 55.507677450602976 0.0
    vertex 30.73337424639713 57.89145678957134 0.0
  endloop
endfacet
facet normal 0.608761429008721 -0.7933533402912349 0.0
  outer loop
    vertex 27.62677252859892 55.507677450602976 0.0
    vertex 30.73337424639713 57.89145678957134 3.9999999999999996
    vertex 27.62677252859892 55.507677450602976 3.9999999999999996
  endloop
endfacet
facet normal 0.3826834323650896 -0.923879532511287 0.0
  outer loop
    vertex 27.62677252859892 55.507677450602976 3.9999999999999996
    vertex 25.118204209965434 54.46859443088552 0.0
    vertex 27.62677252859892 55.507677450602976 0.0
  endloop
endfacet
facet normal 0.3826834323650896 -0.923879532511287 0.0
  outer loop
    vertex 25.118204209965434 54.46859443088552 0.0
    vertex 27.62677252859892 55.507677450602976 3.9999999999999996
    vertex 25.118204209965434 54.46859443088552 3.9999999999999996
  endloop
endfacet
facet normal 0.9999591517285961 0.009038521683690856 0.0
  outer loop
    vertex 25.118204209965434 54.46859443088552 0.0
    vertex 25.22531971706213 42.61808000365761 3.9999999999999996
    vertex 25.22531971706213 42.61808000365761 0.0
  endloop
endfacet
facet normal 0.9999591517285961 0.009038521683690856 0.0
  outer loop
    vertex 25.22531971706213 42.61808000365761 3.9999999999999996
    vertex 25.118204209965434 54.46859443088552 0.0
    vertex 25.118204209965434 54.46859443088552 3.9999999999999996
  endloop
endfacet
facet normal 0.3826834323650911 0.9238795325112863 0.0
  outer loop
    vertex 25.22531971706213 42.61808000365761 3.9999999999999996
    vertex 27.716276962621023 41.586291729255585 0.0
    vertex 25.22531971706213 42.61808000365761 0.0
  endloop
endfacet
facet normal 0.3826834323650911 0.9238795325112863 0.0
  outer loop
    vertex 27.716276962621023 41.586291729255585 0.0
    vertex 25.22531971706213 42.61808000365761 3.9999999999999996
    vertex 27.716276962621023 41.586291729255585 3.9999999999999996
  endloop
endfacet
facet normal 0.608761429008721 0.7933533402912349 0.0
  outer loop
    vertex 27.716276962621023 41.586291729255585 3.9999999999999996
    vertex 30.82287868041923 39.20251239028722 0.0
    vertex 27.716276962621023 41.586291729255585 0.0
  endloop
endfacet
facet normal 0.608761429008721 0.7933533402912349 0.0
  outer loop
    vertex 30.82287868041923 39.20251239028722 0.0
    vertex 27.716276962621023 41.586291729255585 3.9999999999999996
    vertex 30.82287868041923 39.20251239028722 3.9999999999999996
  endloop
endfacet
facet normal 0.7933533402912358 0.6087614290087199 0.0
  outer loop
    vertex 30.82287868041923 39.20251239028722 0.0
    vertex 33.2066580193876 36.09591067248899 3.9999999999999996
    vertex 33.2066580193876 36.09591067248899 0.0
  endloop
endfacet
facet normal 0.7933533402912358 0.6087614290087199 0.0
  outer loop
    vertex 33.2066580193876 36.09591067248899 3.9999999999999996
    vertex 30.82287868041923 39.20251239028722 0.0
    vertex 30.82287868041923 39.20251239028722 3.9999999999999996
  endloop
endfacet
facet normal 0.9238795325112872 0.382683432365089 0.0
  outer loop
    vertex 33.2066580193876 36.09591067248899 0.0
    vertex 34.70516435695704 32.47819634902682 3.9999999999999996
    vertex 34.70516435695704 32.47819634902682 0.0
  endloop
endfacet
facet normal 0.9238795325112872 0.382683432365089 0.0
  outer loop
    vertex 34.70516435695704 32.47819634902682 3.9999999999999996
    vertex 33.2066580193876 36.09591067248899 0.0
    vertex 33.2066580193876 36.09591067248899 3.9999999999999996
  endloop
endfacet
facet normal 0.9914448613738104 0.13052619222005188 0.0
  outer loop
    vertex 34.70516435695704 32.47819634902682 0.0
    vertex 35.216276962621016 28.595910672489005 3.9999999999999996
    vertex 35.216276962621016 28.595910672489005 0.0
  endloop
endfacet
facet normal 0.9914448613738104 0.13052619222005188 0.0
  outer loop
    vertex 35.216276962621016 28.595910672489005 3.9999999999999996
    vertex 34.70516435695704 32.47819634902682 0.0
    vertex 34.70516435695704 32.47819634902682 3.9999999999999996
  endloop
endfacet
facet normal 0.9914448613738105 -0.1305261922200514 0.0
  outer loop
    vertex 35.216276962621016 28.595910672489005 0.0
    vertex 34.70516435695704 24.713624995951182 3.9999999999999996
    vertex 34.70516435695704 24.713624995951182 0.0
  endloop
endfacet
facet normal 0.9914448613738105 -0.1305261922200514 0.0
  outer loop
    vertex 34.70516435695704 24.713624995951182 3.9999999999999996
    vertex 35.216276962621016 28.595910672489005 0.0
    vertex 35.216276962621016 28.595910672489005 3.9999999999999996
  endloop
endfacet
facet normal 0.9238795325112864 -0.38268343236509067 0.0
  outer loop
    vertex 34.70516435695704 24.713624995951182 0.0
    vertex 33.20665801938759 21.095910672488998 3.9999999999999996
    vertex 33.20665801938759 21.095910672488998 0.0
  endloop
endfacet
facet normal 0.9238795325112864 -0.38268343236509067 0.0
  outer loop
    vertex 33.20665801938759 21.095910672488998 3.9999999999999996
    vertex 34.70516435695704 24.713624995951182 0.0
    vertex 34.70516435695704 24.713624995951182 3.9999999999999996
  endloop
endfacet
facet normal 0.7933533402912345 -0.6087614290087215 0.0
  outer loop
    vertex 33.20665801938759 21.095910672488998 0.0
    vertex 30.82287868041922 17.989308954690785 3.9999999999999996
    vertex 30.82287868041922 17.989308954690785 0.0
  endloop
endfacet
facet normal 0.7933533402912345 -0.6087614290087215 0.0
  outer loop
    vertex 30.82287868041922 17.989308954690785 3.9999999999999996
    vertex 33.20665801938759 21.095910672488998 0.0
    vertex 33.20665801938759 21.095910672488998 3.9999999999999996
  endloop
endfacet
facet normal -0.7071067811865483 -0.7071067811865467 -0.0
  outer loop
    vertex 27.287344774486485 21.52484286062353 3.9999999999999996
    vertex 30.82287868041922 17.989308954690785 0.0
    vertex 30.82287868041922 17.989308954690785 3.9999999999999996
  endloop
endfacet
facet normal -0.7071067811865483 -0.7071067811865467 -0.0
  outer loop
    vertex 30.82287868041922 17.989308954690785 0.0
    vertex 27.287344774486485 21.52484286062353 3.9999999999999996
    vertex 27.287344774486485 21.52484286062353 0.0
  endloop
endfacet
facet normal -0.7933533402912354 0.6087614290087207 0.0
  outer loop
    vertex 28.876531000465395 23.595910672489005 3.9999999999999996
    vertex 27.287344774486485 21.52484286062353 0.0
    vertex 27.287344774486485 21.52484286062353 3.9999999999999996
  endloop
endfacet
facet normal -0.7933533402912354 0.6087614290087207 0.0
  outer loop
    vertex 27.287344774486485 21.52484286062353 0.0
    vertex 28.876531000465395 23.595910672489005 3.9999999999999996
    vertex 28.876531000465395 23.595910672489005 0.0
  endloop
endfacet
facet normal -0.923879532511286 0.3826834323650921 0.0
  outer loop
    vertex 29.875535225511694 26.00772022146379 3.9999999999999996
    vertex 28.876531000465395 23.595910672489005 0.0
    vertex 28.876531000465395 23.595910672489005 3.9999999999999996
  endloop
endfacet
facet normal -0.923879532511286 0.3826834323650921 0.0
  outer loop
    vertex 28.876531000465395 23.595910672489005 0.0
    vertex 29.875535225511694 26.00772022146379 3.9999999999999996
    vertex 29.875535225511694 26.00772022146379 0.0
  endloop
endfacet
facet normal -0.9914448613738106 0.13052619222005132 0.0
  outer loop
    vertex 30.216276962621013 28.595910672489005 3.9999999999999996
    vertex 29.875535225511694 26.00772022146379 0.0
    vertex 29.875535225511694 26.00772022146379 3.9999999999999996
  endloop
endfacet
facet normal -0.9914448613738106 0.13052619222005132 0.0
  outer loop
    vertex 29.875535225511694 26.00772022146379 0.0
    vertex 30.216276962621013 28.595910672489005 3.9999999999999996
    vertex 30.216276962621013 28.595910672489005 0.0
  endloop
endfacet
facet normal -0.9914448613738104 -0.13052619222005188 -0.0
  outer loop
    vertex 29.875535225511694 31.18410112351421 3.9999999999999996
    vertex 30.216276962621013 28.595910672489005 0.0
    vertex 30.216276962621013 28.595910672489005 3.9999999999999996
  endloop
endfacet
facet normal -0.9914448613738104 -0.13052619222005188 -0.0
  outer loop
    vertex 30.216276962621013 28.595910672489005 0.0
    vertex 29.875535225511694 31.18410112351421 3.9999999999999996
    vertex 29.875535225511694 31.18410112351421 0.0
  endloop
endfacet
facet normal -0.9238795325112873 -0.38268343236508834 -0.0
  outer loop
    vertex 28.876531000465405 33.595910672489 3.9999999999999996
    vertex 29.875535225511694 31.18410112351421 0.0
    vertex 29.875535225511694 31.18410112351421 3.9999999999999996
  endloop
endfacet
facet normal -0.9238795325112873 -0.38268343236508834 -0.0
  outer loop
    vertex 29.875535225511694 31.18410112351421 0.0
    vertex 28.876531000465405 33.595910672489 3.9999999999999996
    vertex 28.876531000465405 33.595910672489 0.0
  endloop
endfacet
facet normal -0.7933533402912349 -0.608761429008721 -0.0
  outer loop
    vertex 27.287344774486492 35.66697848435447 3.9999999999999996
    vertex 28.876531000465405 33.595910672489 0.0
    vertex 28.876531000465405 33.595910672489 3.9999999999999996
  endloop
endfacet
facet normal -0.7933533402912349 -0.608761429008721 -0.0
  outer loop
    vertex 28.876531000465405 33.595910672489 0.0
    vertex 27.287344774486492 35.66697848435447 3.9999999999999996
    vertex 27.287344774486492 35.66697848435447 0.0
  endloop
endfacet
facet normal -0.6087614290087207 -0.7933533402912354 -0.0
  outer loop
    vertex 27.287344774486492 35.66697848435447 3.9999999999999996
    vertex 25.216276962621016 37.25616471033339 0.0
    vertex 27.287344774486492 35.66697848435447 0.0
  endloop
endfacet
facet normal -0.6087614290087207 -0.7933533402912354 -0.0
  outer loop
    vertex 25.216276962621016 37.25616471033339 0.0
    vertex 27.287344774486492 35.66697848435447 3.9999999999999996
    vertex 25.216276962621016 37.25616471033339 3.9999999999999996
  endloop
endfacet
facet normal -0.38268343236508984 -0.9238795325112867 -0.0
  outer loop
    vertex 25.216276962621016 37.25616471033339 3.9999999999999996
    vertex 22.80446741364623 38.25516893537968 0.0
    vertex 25.216276962621016 37.25616471033339 0.0
  endloop
endfacet
facet normal -0.38268343236508984 -0.9238795325112867 -0.0
  outer loop
    vertex 22.80446741364623 38.25516893537968 0.0
    vertex 25.216276962621016 37.25616471033339 3.9999999999999996
    vertex 22.80446741364623 38.25516893537968 3.9999999999999996
  endloop
endfacet
facet normal -0.13052619222005357 -0.9914448613738103 -0.0
  outer loop
    vertex 22.80446741364623 38.25516893537968 3.9999999999999996
    vertex 20.216276962621013 38.595910672489005 0.0
    vertex 22.80446741364623 38.25516893537968 0.0
  endloop
endfacet
facet normal -0.13052619222005357 -0.9914448613738103 -0.0
  outer loop
    vertex 20.216276962621013 38.595910672489005 0.0
    vertex 22.80446741364623 38.25516893537968 3.9999999999999996
    vertex 20.216276962621013 38.595910672489005 3.9999999999999996
  endloop
endfacet
facet normal 0.13052619222005174 -0.9914448613738104 0.0
  outer loop
    vertex 20.216276962621013 38.595910672489005 3.9999999999999996
    vertex 17.628086511595807 38.255168935379686 0.0
    vertex 20.216276962621013 38.595910672489005 0.0
  endloop
endfacet
facet normal 0.13052619222005174 -0.9914448613738104 0.0
  outer loop
    vertex 17.628086511595807 38.255168935379686 0.0
    vertex 20.216276962621013 38.595910672489005 3.9999999999999996
    vertex 17.628086511595807 38.255168935379686 3.9999999999999996
  endloop
endfacet
facet normal 0.3826834323650895 -0.923879532511287 0.0
  outer loop
    vertex 17.628086511595807 38.255168935379686 3.9999999999999996
    vertex 15.216276962621015 37.256164710333394 0.0
    vertex 17.628086511595807 38.255168935379686 0.0
  endloop
endfacet
facet normal 0.3826834323650895 -0.923879532511287 0.0
  outer loop
    vertex 15.216276962621015 37.256164710333394 0.0
    vertex 17.628086511595807 38.255168935379686 3.9999999999999996
    vertex 15.216276962621015 37.256164710333394 3.9999999999999996
  endloop
endfacet
facet normal 0.6087614290087221 -0.7933533402912343 0.0
  outer loop
    vertex 15.216276962621015 37.256164710333394 3.9999999999999996
    vertex 13.14520915075554 35.66697848435447 0.0
    vertex 15.216276962621015 37.256164710333394 0.0
  endloop
endfacet
facet normal 0.6087614290087221 -0.7933533402912343 0.0
  outer loop
    vertex 13.14520915075554 35.66697848435447 0.0
    vertex 15.216276962621015 37.256164710333394 3.9999999999999996
    vertex 13.14520915075554 35.66697848435447 3.9999999999999996
  endloop
endfacet
facet normal 0.7933533402912342 -0.608761429008722 0.0
  outer loop
    vertex 13.14520915075554 35.66697848435447 0.0
    vertex 11.556022924776629 33.595910672489005 3.9999999999999996
    vertex 11.556022924776629 33.595910672489005 0.0
  endloop
endfacet
facet normal 0.7933533402912342 -0.608761429008722 0.0
  outer loop
    vertex 11.556022924776629 33.595910672489005 3.9999999999999996
    vertex 13.14520915075554 35.66697848435447 0.0
    vertex 13.14520915075554 35.66697848435447 3.9999999999999996
  endloop
endfacet
facet normal 0.9238795325112867 -0.38268343236508995 0.0
  outer loop
    vertex 11.556022924776629 33.595910672489005 0.0
    vertex 10.557018699730333 31.184101123514218 3.9999999999999996
    vertex 10.557018699730333 31.184101123514218 0.0
  endloop
endfacet
facet normal 0.9238795325112867 -0.38268343236508995 0.0
  outer loop
    vertex 10.557018699730333 31.184101123514218 3.9999999999999996
    vertex 11.556022924776629 33.595910672489005 0.0
    vertex 11.556022924776629 33.595910672489005 3.9999999999999996
  endloop
endfacet
facet normal 0.9914448613738104 -0.13052619222005157 0.0
  outer loop
    vertex 10.557018699730333 31.184101123514218 0.0
    vertex 10.216276962621016 28.595910672489005 3.9999999999999996
    vertex 10.216276962621016 28.595910672489005 0.0
  endloop
endfacet
facet normal 0.9914448613738104 -0.13052619222005157 0.0
  outer loop
    vertex 10.216276962621016 28.595910672489005 3.9999999999999996
    vertex 10.557018699730333 31.184101123514218 0.0
    vertex 10.557018699730333 31.184101123514218 3.9999999999999996
  endloop
endfacet
facet normal 0.9914448613738104 0.13052619222005188 0.0
  outer loop
    vertex 10.216276962621016 28.595910672489005 0.0
    vertex 10.557018699730333 26.0077202214638 3.9999999999999996
    vertex 10.557018699730333 26.0077202214638 0.0
  endloop
endfacet
facet normal 0.9914448613738104 0.13052619222005188 0.0
  outer loop
    vertex 10.557018699730333 26.0077202214638 3.9999999999999996
    vertex 10.216276962621016 28.595910672489005 0.0
    vertex 10.216276962621016 28.595910672489005 3.9999999999999996
  endloop
endfacet
facet normal 0.9238795325112871 0.382683432365089 0.0
  outer loop
    vertex 10.557018699730333 26.0077202214638 0.0
    vertex 11.556022924776627 23.59591067248901 3.9999999999999996
    vertex 11.556022924776627 23.59591067248901 0.0
  endloop
endfacet
facet normal 0.9238795325112871 0.382683432365089 0.0
  outer loop
    vertex 11.556022924776627 23.59591067248901 3.9999999999999996
    vertex 10.557018699730333 26.0077202214638 0.0
    vertex 10.557018699730333 26.0077202214638 3.9999999999999996
  endloop
endfacet
facet normal 0.7933533402912349 0.608761429008721 0.0
  outer loop
    vertex 11.556022924776627 23.59591067248901 0.0
    vertex 13.145209150755539 21.524842860623536 3.9999999999999996
    vertex 13.145209150755539 21.524842860623536 0.0
  endloop
endfacet
facet normal 0.7933533402912349 0.608761429008721 0.0
  outer loop
    vertex 13.145209150755539 21.524842860623536 3.9999999999999996
    vertex 11.556022924776627 23.59591067248901 0.0
    vertex 11.556022924776627 23.59591067248901 3.9999999999999996
  endloop
endfacet
facet normal 0.7071067811865478 -0.7071067811865472 0.0
  outer loop
    vertex 13.145209150755539 21.524842860623536 0.0
    vertex 9.6096752448228 17.989308954690795 3.9999999999999996
    vertex 9.6096752448228 17.989308954690795 0.0
  endloop
endfacet
facet normal 0.7071067811865478 -0.7071067811865472 0.0
  outer loop
    vertex 9.6096752448228 17.989308954690795 3.9999999999999996
    vertex 13.145209150755539 21.524842860623536 0.0
    vertex 13.145209150755539 21.524842860623536 3.9999999999999996
  endloop
endfacet
facet normal -0.7933533402912352 -0.6087614290087208 -0.0
  outer loop
    vertex 7.225895905854433 21.09591067248901 3.9999999999999996
    vertex 9.6096752448228 17.989308954690795 0.0
    vertex 9.6096752448228 17.989308954690795 3.9999999999999996
  endloop
endfacet
facet normal -0.7933533402912352 -0.6087614290087208 -0.0
  outer loop
    vertex 9.6096752448228 17.989308954690795 0.0
    vertex 7.225895905854433 21.09591067248901 3.9999999999999996
    vertex 7.225895905854433 21.09591067248901 0.0
  endloop
endfacet
facet normal -0.9238795325112868 -0.38268343236508945 -0.0
  outer loop
    vertex 5.72738956828499 24.713624995951196 3.9999999999999996
    vertex 7.225895905854433 21.09591067248901 0.0
    vertex 7.225895905854433 21.09591067248901 3.9999999999999996
  endloop
endfacet
facet normal -0.9238795325112868 -0.38268343236508945 -0.0
  outer loop
    vertex 7.225895905854433 21.09591067248901 0.0
    vertex 5.72738956828499 24.713624995951196 3.9999999999999996
    vertex 5.72738956828499 24.713624995951196 0.0
  endloop
endfacet
facet normal -0.9914448613738105 -0.13052619222005177 -0.0
  outer loop
    vertex 5.216276962621014 28.595910672489005 3.9999999999999996
    vertex 5.72738956828499 24.713624995951196 0.0
    vertex 5.72738956828499 24.713624995951196 3.9999999999999996
  endloop
endfacet
facet normal -0.9914448613738105 -0.13052619222005177 -0.0
  outer loop
    vertex 5.72738956828499 24.713624995951196 0.0
    vertex 5.216276962621014 28.595910672489005 3.9999999999999996
    vertex 5.216276962621014 28.595910672489005 0.0
  endloop
endfacet
facet normal -0.9914448613738104 0.13052619222005168 0.0
  outer loop
    vertex 5.72738956828499 32.47819634902682 3.9999999999999996
    vertex 5.216276962621014 28.595910672489005 0.0
    vertex 5.216276962621014 28.595910672489005 3.9999999999999996
  endloop
endfacet
facet normal -0.9914448613738104 0.13052619222005168 0.0
  outer loop
    vertex 5.216276962621014 28.595910672489005 0.0
    vertex 5.72738956828499 32.47819634902682 3.9999999999999996
    vertex 5.72738956828499 32.47819634902682 0.0
  endloop
endfacet
facet normal -0.9238795325112868 0.3826834323650899 0.0
  outer loop
    vertex 7.225895905854435 36.09591067248901 3.9999999999999996
    vertex 5.72738956828499 32.47819634902682 0.0
    vertex 5.72738956828499 32.47819634902682 3.9999999999999996
  endloop
endfacet
facet normal -0.9238795325112868 0.3826834323650899 0.0
  outer loop
    vertex 5.72738956828499 32.47819634902682 0.0
    vertex 7.225895905854435 36.09591067248901 3.9999999999999996
    vertex 7.225895905854435 36.09591067248901 0.0
  endloop
endfacet
facet normal -0.7933533402912353 0.6087614290087205 0.0
  outer loop
    vertex 9.609675244822801 39.202512390287225 3.9999999999999996
    vertex 7.225895905854435 36.09591067248901 0.0
    vertex 7.225895905854435 36.09591067248901 3.9999999999999996
  endloop
endfacet
facet normal -0.7933533402912353 0.6087614290087205 0.0
  outer loop
    vertex 7.225895905854435 36.09591067248901 0.0
    vertex 9.609675244822801 39.202512390287225 3.9999999999999996
    vertex 9.609675244822801 39.202512390287225 0.0
  endloop
endfacet
facet normal -0.6087614290087201 0.7933533402912356 0.0
  outer loop
    vertex 9.609675244822801 39.202512390287225 3.9999999999999996
    vertex 12.716276962621016 41.586291729255585 0.0
    vertex 9.609675244822801 39.202512390287225 0.0
  endloop
endfacet
facet normal -0.6087614290087201 0.7933533402912356 0.0
  outer loop
    vertex 12.716276962621016 41.586291729255585 0.0
    vertex 9.609675244822801 39.202512390287225 3.9999999999999996
    vertex 12.716276962621016 41.586291729255585 3.9999999999999996
  endloop
endfacet
facet normal -0.3826834323650896 0.923879532511287 0.0
  outer loop
    vertex 12.716276962621016 41.586291729255585 3.9999999999999996
    vertex 15.224845281254503 42.62537474897305 0.0
    vertex 12.716276962621016 41.586291729255585 0.0
  endloop
endfacet
facet normal -0.3826834323650896 0.923879532511287 0.0
  outer loop
    vertex 15.224845281254503 42.62537474897305 0.0
    vertex 12.716276962621016 41.586291729255585 3.9999999999999996
    vertex 15.224845281254503 42.62537474897305 3.9999999999999996
  endloop
endfacet
facet normal -1.0 0.0 0.0
  outer loop
    vertex 15.224845281254503 54.43152048042104 3.9999999999999996
    vertex 15.224845281254503 42.62537474897305 0.0
    vertex 15.224845281254503 42.62537474897305 3.9999999999999996
  endloop
endfacet
facet normal -1.0 0.0 0.0
  outer loop
    vertex 15.224845281254503 42.62537474897305 0.0
    vertex 15.224845281254503 54.43152048042104 3.9999999999999996
    vertex 15.224845281254503 54.43152048042104 0.0
  endloop
endfacet
facet normal -0.38268343236509 -0.9238795325112868 -0.0
  outer loop
    vertex 15.224845281254503 54.43152048042104 3.9999999999999996
    vertex 12.626772528598917 55.50767745060298 0.0
    vertex 15.224845281254503 54.43152048042104 0.0
  endloop
endfacet
facet normal -0.38268343236509 -0.9238795325112868 -0.0
  outer loop
    vertex 12.626772528598917 55.50767745060298 0.0
    vertex 15.224845281254503 54.43152048042104 3.9999999999999996
    vertex 12.626772528598917 55.50767745060298 3.9999999999999996
  endloop
endfacet
facet normal -0.608761429008721 -0.7933533402912349 -0.0
  outer loop
    vertex 12.626772528598917 55.50767745060298 3.9999999999999996
    vertex 9.520170810800709 57.89145678957135 0.0
    vertex 12.626772528598917 55.50767745060298 0.0
  endloop
endfacet
facet normal -0.608761429008721 -0.7933533402912349 -0.0
  outer loop
    vertex 9.520170810800709 57.89145678957135 0.0
    vertex 12.626772528598917 55.50767745060298 3.9999999999999996
    vertex 9.520170810800709 57.89145678957135 3.9999999999999996
  endloop
endfacet
facet normal -0.7933533402912346 -0.6087614290087214 -0.0
  outer loop
    vertex 7.136391471832341 60.99805850736956 3.9999999999999996
    vertex 9.520170810800709 57.89145678957135 0.0
    vertex 9.520170810800709 57.89145678957135 3.9999999999999996
  endloop
endfacet
facet normal -0.7933533402912346 -0.6087614290087214 -0.0
  outer loop
    vertex 9.520170810800709 57.89145678957135 0.0
    vertex 7.136391471832341 60.99805850736956 3.9999999999999996
    vertex 7.136391471832341 60.99805850736956 0.0
  endloop
endfacet
facet normal -0.923879532511287 -0.3826834323650892 -0.0
  outer loop
    vertex 5.637885134262898 64.61577283083174 3.9999999999999996
    vertex 7.136391471832341 60.99805850736956 0.0
    vertex 7.136391471832341 60.99805850736956 3.9999999999999996
  endloop
endfacet
facet normal -0.923879532511287 -0.3826834323650892 -0.0
  outer loop
    vertex 7.136391471832341 60.99805850736956 0.0
    vertex 5.637885134262898 64.61577283083174 3.9999999999999996
    vertex 5.637885134262898 64.61577283083174 0.0
  endloop
endfacet
facet normal -0.9914448613738105 -0.1305261922200515 -0.0
  outer loop
    vertex 5.126772528598922 68.49805850736956 3.9999999999999996
    vertex 5.637885134262898 64.61577283083174 0.0
    vertex 5.637885134262898 64.61577283083174 3.9999999999999996
  endloop
endfacet
facet normal -0.9914448613738105 -0.1305261922200515 -0.0
  outer loop
    vertex 5.637885134262898 64.61577283083174 0.0
    vertex 5.126772528598922 68.49805850736956 3.9999999999999996
    vertex 5.126772528598922 68.49805850736956 0.0
  endloop
endfacet
facet normal -0.9914448613738104 0.13052619222005188 0.0
  outer loop
    vertex 5.637885134262898 72.38034418390737 3.9999999999999996
    vertex 5.126772528598922 68.49805850736956 0.0
    vertex 5.126772528598922 68.49805850736956 3.9999999999999996
  endloop
endfacet
facet normal -0.9914448613738104 0.13052619222005188 0.0
  outer loop
    vertex 5.126772528598922 68.49805850736956 0.0
    vertex 5.637885134262898 72.38034418390737 3.9999999999999996
    vertex 5.637885134262898 72.38034418390737 0.0
  endloop
endfacet
facet normal -0.9238795325112868 0.3826834323650899 0.0
  outer loop
    vertex 7.136391471832344 75.99805850736956 3.9999999999999996
    vertex 5.637885134262898 72.38034418390737 0.0
    vertex 5.637885134262898 72.38034418390737 3.9999999999999996
  endloop
endfacet
facet normal -0.9238795325112868 0.3826834323650899 0.0
  outer loop
    vertex 5.637885134262898 72.38034418390737 0.0
    vertex 7.136391471832344 75.99805850736956 3.9999999999999996
    vertex 7.136391471832344 75.99805850736956 0.0
  endloop
endfacet
facet normal -0.7933533402912358 0.6087614290087199 0.0
  outer loop
    vertex 9.52017081080071 79.10466022516779 3.9999999999999996
    vertex 7.136391471832344 75.99805850736956 0.0
    vertex 7.136391471832344 75.99805850736956 3.9999999999999996
  endloop
endfacet
facet normal -0.7933533402912358 0.6087614290087199 0.0
  outer loop
    vertex 7.136391471832344 75.99805850736956 0.0
    vertex 9.52017081080071 79.10466022516779 3.9999999999999996
    vertex 9.52017081080071 79.10466022516779 0.0
  endloop
endfacet
facet normal 0.7071067811865482 0.7071067811865468 0.0
  outer loop
    vertex 9.52017081080071 79.10466022516779 0.0
    vertex 13.05570471673345 75.56912631923504 3.9999999999999996
    vertex 13.05570471673345 75.56912631923504 0.0
  endloop
endfacet
facet normal 0.7071067811865482 0.7071067811865468 0.0
  outer loop
    vertex 13.05570471673345 75.56912631923504 3.9999999999999996
    vertex 9.52017081080071 79.10466022516779 0.0
    vertex 9.52017081080071 79.10466022516779 3.9999999999999996
  endloop
endfacet
facet normal 0.7933533402912357 -0.6087614290087199 0.0
  outer loop
    vertex 13.05570471673345 75.56912631923504 0.0
    vertex 11.466518490754538 73.49805850736956 3.9999999999999996
    vertex 11.466518490754538 73.49805850736956 0.0
  endloop
endfacet
facet normal 0.7933533402912357 -0.6087614290087199 0.0
  outer loop
    vertex 11.466518490754538 73.49805850736956 3.9999999999999996
    vertex 13.05570471673345 75.56912631923504 0.0
    vertex 13.05570471673345 75.56912631923504 3.9999999999999996
  endloop
endfacet
facet normal 0.9238795325112865 -0.3826834323650907 0.0
  outer loop
    vertex 11.466518490754538 73.49805850736956 0.0
    vertex 10.46751426570824 71.08624895839478 3.9999999999999996
    vertex 10.46751426570824 71.08624895839478 0.0
  endloop
endfacet
facet normal 0.9238795325112865 -0.3826834323650907 0.0
  outer loop
    vertex 10.46751426570824 71.08624895839478 3.9999999999999996
    vertex 11.466518490754538 73.49805850736956 0.0
    vertex 11.466518490754538 73.49805850736956 3.9999999999999996
  endloop
endfacet
facet normal 0.9914448613738104 -0.13052619222005188 0.0
  outer loop
    vertex 10.46751426570824 71.08624895839478 0.0
    vertex 10.126772528598924 68.49805850736956 3.9999999999999996
    vertex 10.126772528598924 68.49805850736956 0.0
  endloop
endfacet
facet normal 0.9914448613738104 -0.13052619222005188 0.0
  outer loop
    vertex 10.126772528598924 68.49805850736956 3.9999999999999996
    vertex 10.46751426570824 71.08624895839478 0.0
    vertex 10.46751426570824 71.08624895839478 3.9999999999999996
  endloop
endfacet
facet normal 0.9914448613738104 0.13052619222005188 0.0
  outer loop
    vertex 10.126772528598924 68.49805850736956 0.0
    vertex 10.46751426570824 65.90986805634437 3.9999999999999996
    vertex 10.46751426570824 65.90986805634437 0.0
  endloop
endfacet
facet normal 0.9914448613738104 0.13052619222005188 0.0
  outer loop
    vertex 10.46751426570824 65.90986805634437 3.9999999999999996
    vertex 10.126772528598924 68.49805850736956 0.0
    vertex 10.126772528598924 68.49805850736956 3.9999999999999996
  endloop
endfacet
facet normal 0.9238795325112874 0.3826834323650882 0.0
  outer loop
    vertex 10.46751426570824 65.90986805634437 0.0
    vertex 11.466518490754535 63.498058507369564 3.9999999999999996
    vertex 11.466518490754535 63.498058507369564 0.0
  endloop
endfacet
facet normal 0.9238795325112874 0.3826834323650882 0.0
  outer loop
    vertex 11.466518490754535 63.498058507369564 3.9999999999999996
    vertex 10.46751426570824 65.90986805634437 0.0
    vertex 10.46751426570824 65.90986805634437 3.9999999999999996
  endloop
endfacet
facet normal 0.7933533402912342 0.608761429008722 0.0
  outer loop
    vertex 11.466518490754535 63.498058507369564 0.0
    vertex 13.055704716733446 61.426990695504095 3.9999999999999996
    vertex 13.055704716733446 61.426990695504095 0.0
  endloop
endfacet
facet normal 0.7933533402912342 0.608761429008722 0.0
  outer loop
    vertex 13.055704716733446 61.426990695504095 3.9999999999999996
    vertex 11.466518490754535 63.498058507369564 0.0
    vertex 11.466518490754535 63.498058507369564 3.9999999999999996
  endloop
endfacet
facet normal 0.6087614290087207 0.7933533402912354 0.0
  outer loop
    vertex 13.055704716733446 61.426990695504095 3.9999999999999996
    vertex 15.12677252859892 59.83780446952519 0.0
    vertex 13.055704716733446 61.426990695504095 0.0
  endloop
endfacet
facet normal 0.6087614290087207 0.7933533402912354 0.0
  outer loop
    vertex 15.12677252859892 59.83780446952519 0.0
    vertex 13.055704716733446 61.426990695504095 3.9999999999999996
    vertex 15.12677252859892 59.83780446952519 3.9999999999999996
  endloop
endfacet
facet normal 0.38268343236509317 0.9238795325112854 0.0
  outer loop
    vertex 15.12677252859892 59.83780446952519 3.9999999999999996
    vertex 17.53858207757371 58.83880024447888 0.0
    vertex 15.12677252859892 59.83780446952519 0.0
  endloop
endfacet
facet normal 0.38268343236509317 0.9238795325112854 0.0
  outer loop
    vertex 17.53858207757371 58.83880024447888 0.0
    vertex 15.12677252859892 59.83780446952519 3.9999999999999996
    vertex 17.53858207757371 58.83880024447888 3.9999999999999996
  endloop
endfacet
facet normal 0.13052619222005157 0.9914448613738104 0.0
  outer loop
    vertex 17.53858207757371 58.83880024447888 3.9999999999999996
    vertex 20.126772528598924 58.498058507369564 0.0
    vertex 17.53858207757371 58.83880024447888 0.0
  endloop
endfacet
facet normal 0.13052619222005157 0.9914448613738104 0.0
  outer loop
    vertex 20.126772528598924 58.498058507369564 0.0
    vertex 17.53858207757371 58.83880024447888 3.9999999999999996
    vertex 20.126772528598924 58.498058507369564 3.9999999999999996
  endloop
endfacet
facet normal -0.13052619222005202 0.9914448613738104 0.0
  outer loop
    vertex 20.126772528598924 58.498058507369564 3.9999999999999996
    vertex 22.714962979624126 58.83880024447888 0.0
    vertex 20.126772528598924 58.498058507369564 0.0
  endloop
endfacet
facet normal -0.13052619222005202 0.9914448613738104 0.0
  outer loop
    vertex 22.714962979624126 58.83880024447888 0.0
    vertex 20.126772528598924 58.498058507369564 3.9999999999999996
    vertex 22.714962979624126 58.83880024447888 3.9999999999999996
  endloop
endfacet
facet normal -0.38268343236508917 0.9238795325112872 0.0
  outer loop
    vertex 22.714962979624126 58.83880024447888 3.9999999999999996
    vertex 25.12677252859892 59.837804469525175 0.0
    vertex 22.714962979624126 58.83880024447888 0.0
  endloop
endfacet
facet normal -0.38268343236508917 0.9238795325112872 0.0
  outer loop
    vertex 25.12677252859892 59.837804469525175 0.0
    vertex 22.714962979624126 58.83880024447888 3.9999999999999996
    vertex 25.12677252859892 59.837804469525175 3.9999999999999996
  endloop
endfacet
facet normal -0.6087614290087207 0.7933533402912354 0.0
  outer loop
    vertex 25.12677252859892 59.837804469525175 3.9999999999999996
    vertex 27.197840340464392 61.42699069550409 0.0
    vertex 25.12677252859892 59.837804469525175 0.0
  endloop
endfacet
facet normal -0.6087614290087207 0.7933533402912354 0.0
  outer loop
    vertex 27.197840340464392 61.42699069550409 0.0
    vertex 25.12677252859892 59.837804469525175 3.9999999999999996
    vertex 27.197840340464392 61.42699069550409 3.9999999999999996
  endloop
endfacet
facet normal -0.7933533402912344 0.6087614290087217 0.0
  outer loop
    vertex 28.787026566443302 63.49805850736956 3.9999999999999996
    vertex 27.197840340464392 61.42699069550409 0.0
    vertex 27.197840340464392 61.42699069550409 3.9999999999999996
  endloop
endfacet
facet normal -0.7933533402912344 0.6087614290087217 0.0
  outer loop
    vertex 27.197840340464392 61.42699069550409 0.0
    vertex 28.787026566443302 63.49805850736956 3.9999999999999996
    vertex 28.787026566443302 63.49805850736956 0.0
  endloop
endfacet
facet normal -0.923879532511286 0.3826834323650921 0.0
  outer loop
    vertex 29.786030791489605 65.90986805634434 3.9999999999999996
    vertex 28.787026566443302 63.49805850736956 0.0
    vertex 28.787026566443302 63.49805850736956 3.9999999999999996
  endloop
endfacet
facet normal -0.923879532511286 0.3826834323650921 0.0
  outer loop
    vertex 28.787026566443302 63.49805850736956 0.0
    vertex 29.786030791489605 65.90986805634434 3.9999999999999996
    vertex 29.786030791489605 65.90986805634434 0.0
  endloop
endfacet
facet normal -0.9914448613738106 0.13052619222005074 0.0
  outer loop
    vertex 30.12677252859892 68.49805850736956 3.9999999999999996
    vertex 29.786030791489605 65.90986805634434 0.0
    vertex 29.786030791489605 65.90986805634434 3.9999999999999996
  endloop
endfacet
facet normal -0.9914448613738106 0.13052619222005074 0.0
  outer loop
    vertex 29.786030791489605 65.90986805634434 0.0
    vertex 30.12677252859892 68.49805850736956 3.9999999999999996
    vertex 30.12677252859892 68.49805850736956 0.0
  endloop
endfacet
facet normal -0.9914448613738104 -0.13052619222005188 -0.0
  outer loop
    vertex 29.786030791489605 71.08624895839478 3.9999999999999996
    vertex 30.12677252859892 68.49805850736956 0.0
    vertex 30.12677252859892 68.49805850736956 3.9999999999999996
  endloop
endfacet
facet normal -0.9914448613738104 -0.13052619222005188 -0.0
  outer loop
    vertex 30.12677252859892 68.49805850736956 0.0
    vertex 29.786030791489605 71.08624895839478 3.9999999999999996
    vertex 29.786030791489605 71.08624895839478 0.0
  endloop
endfacet
facet normal -0.9238795325112873 -0.38268343236508834 -0.0
  outer loop
    vertex 28.787026566443313 73.49805850736956 3.9999999999999996
    vertex 29.786030791489605 71.08624895839478 0.0
    vertex 29.786030791489605 71.08624895839478 3.9999999999999996
  endloop
endfacet
facet normal -0.9238795325112873 -0.38268343236508834 -0.0
  outer loop
    vertex 29.786030791489605 71.08624895839478 0.0
    vertex 28.787026566443313 73.49805850736956 3.9999999999999996
    vertex 28.787026566443313 73.49805850736956 0.0
  endloop
endfacet
endsolid Abstandshalter
